REM DIRINDEX 1\2\4,1\2\5,1\2\6,1\3\7,1\3\8,1\3\9,1\3\10
REM DIRNAME cjc057,folder01,folder02,folder03,folder04,folder05,folder06,folder07,folder08,folder09
TITLE ""
FILE "b_201.mp3" MP3
  TRACK 01 AUDIO
    TITLE "0:"
    INDEX 01 00:00:00
  TRACK 02 AUDIO
    TITLE "7:cjc057_10204"
    INDEX 01 00:00:15
  TRACK 03 AUDIO
    TITLE "0:"
    INDEX 01 00:01:44
  TRACK 04 AUDIO
    TITLE "8:cjc057_10205"
    INDEX 01 00:01:73
  TRACK 05 AUDIO
    TITLE "0:"
    INDEX 01 00:04:56
  TRACK 06 AUDIO
    TITLE "9:cjc057_10206"
    INDEX 01 00:05:22
  TRACK 07 AUDIO
    TITLE "0:"
    INDEX 01 00:09:22
  TRACK 08 AUDIO
    TITLE "7:cjc057_10207"
    INDEX 01 00:10:27
  TRACK 09 AUDIO
    TITLE "0:"
    INDEX 01 00:11:48
  TRACK 10 AUDIO
    TITLE "8:cjc057_10208"
    INDEX 01 00:12:01
  TRACK 11 AUDIO
    TITLE "0:"
    INDEX 01 00:16:55
  TRACK 12 AUDIO
    TITLE "9:cjc057_10209"
    INDEX 01 00:17:21
  TRACK 13 AUDIO
    TITLE "0:"
    INDEX 01 00:21:29
  TRACK 14 AUDIO
    TITLE "7:cjc057_10210"
    INDEX 01 00:22:32
  TRACK 15 AUDIO
    TITLE "0:"
    INDEX 01 00:23:53
  TRACK 16 AUDIO
    TITLE "8:cjc057_10211"
    INDEX 01 00:24:08
  TRACK 17 AUDIO
    TITLE "0:"
    INDEX 01 00:27:63
  TRACK 18 AUDIO
    TITLE "9:cjc057_10212"
    INDEX 01 00:28:25
  TRACK 19 AUDIO
    TITLE "0:"
    INDEX 01 00:31:73
  TRACK 20 AUDIO
    TITLE "7:cjc057_10213"
    INDEX 01 00:33:03
  TRACK 21 AUDIO
    TITLE "0:"
    INDEX 01 00:34:14
  TRACK 22 AUDIO
    TITLE "8:cjc057_10214"
    INDEX 01 00:34:43
  TRACK 23 AUDIO
    TITLE "0:"
    INDEX 01 00:37:08
  TRACK 24 AUDIO
    TITLE "9:cjc057_10215"
    INDEX 01 00:37:52
  TRACK 25 AUDIO
    TITLE "0:"
    INDEX 01 00:41:02
  TRACK 26 AUDIO
    TITLE "7:cjc057_10216"
    INDEX 01 00:42:08
  TRACK 27 AUDIO
    TITLE "0:"
    INDEX 01 00:43:31
  TRACK 28 AUDIO
    TITLE "8:cjc057_10217"
    INDEX 01 00:43:60
  TRACK 29 AUDIO
    TITLE "0:"
    INDEX 01 00:46:27
  TRACK 30 AUDIO
    TITLE "9:cjc057_10218"
    INDEX 01 00:46:68
  TRACK 31 AUDIO
    TITLE "0:"
    INDEX 01 00:50:31
  TRACK 32 AUDIO
    TITLE "7:cjc057_10219"
    INDEX 01 00:51:34
  TRACK 33 AUDIO
    TITLE "0:"
    INDEX 01 00:52:49
  TRACK 34 AUDIO
    TITLE "8:cjc057_10220"
    INDEX 01 00:53:04
  TRACK 35 AUDIO
    TITLE "0:"
    INDEX 01 00:55:53
  TRACK 36 AUDIO
    TITLE "9:cjc057_10221"
    INDEX 01 00:56:20
  TRACK 37 AUDIO
    TITLE "0:"
    INDEX 01 00:58:69
  TRACK 38 AUDIO
    TITLE "7:cjc057_10222"
    INDEX 01 00:59:73
  TRACK 39 AUDIO
    TITLE "0:"
    INDEX 01 01:01:29
  TRACK 40 AUDIO
    TITLE "8:cjc057_10223"
    INDEX 01 01:01:60
  TRACK 41 AUDIO
    TITLE "0:"
    INDEX 01 01:03:31
  TRACK 42 AUDIO
    TITLE "9:cjc057_10224"
    INDEX 01 01:03:71
  TRACK 43 AUDIO
    TITLE "0:"
    INDEX 01 01:07:14
  TRACK 44 AUDIO
    TITLE "7:cjc057_10225"
    INDEX 01 01:08:17
  TRACK 45 AUDIO
    TITLE "0:"
    INDEX 01 01:09:32
  TRACK 46 AUDIO
    TITLE "8:cjc057_10226"
    INDEX 01 01:09:61
  TRACK 47 AUDIO
    TITLE "0:"
    INDEX 01 01:12:13
  TRACK 48 AUDIO
    TITLE "9:cjc057_10227"
    INDEX 01 01:12:54
  TRACK 49 AUDIO
    TITLE "0:"
    INDEX 01 01:16:58
  TRACK 50 AUDIO
    TITLE "7:cjc057_10228"
    INDEX 01 01:17:63
  TRACK 51 AUDIO
    TITLE "0:"
    INDEX 01 01:19:19
  TRACK 52 AUDIO
    TITLE "8:cjc057_10229"
    INDEX 01 01:19:48
  TRACK 53 AUDIO
    TITLE "0:"
    INDEX 01 01:22:13
  TRACK 54 AUDIO
    TITLE "9:cjc057_10230"
    INDEX 01 01:22:52
  TRACK 55 AUDIO
    TITLE "0:"
    INDEX 01 01:26:60
  TRACK 56 AUDIO
    TITLE "7:cjc057_10231"
    INDEX 01 01:27:67
  TRACK 57 AUDIO
    TITLE "0:"
    INDEX 01 01:29:01
  TRACK 58 AUDIO
    TITLE "8:cjc057_10232"
    INDEX 01 01:29:29
  TRACK 59 AUDIO
    TITLE "0:"
    INDEX 01 01:32:39
  TRACK 60 AUDIO
    TITLE "9:cjc057_10233"
    INDEX 01 01:33:05
  TRACK 61 AUDIO
    TITLE "0:"
    INDEX 01 01:37:03
  TRACK 62 AUDIO
    TITLE "7:cjc057_10234"
    INDEX 01 01:38:06
  TRACK 63 AUDIO
    TITLE "0:"
    INDEX 01 01:39:17
  TRACK 64 AUDIO
    TITLE "8:cjc057_10235"
    INDEX 01 01:39:47
  TRACK 65 AUDIO
    TITLE "0:"
    INDEX 01 01:41:22
  TRACK 66 AUDIO
    TITLE "9:cjc057_10236"
    INDEX 01 01:41:63
  TRACK 67 AUDIO
    TITLE "0:"
    INDEX 01 01:46:61
  TRACK 68 AUDIO
    TITLE "7:cjc057_10237"
    INDEX 01 01:47:62
  TRACK 69 AUDIO
    TITLE "0:"
    INDEX 01 01:49:20
  TRACK 70 AUDIO
    TITLE "8:cjc057_10238"
    INDEX 01 01:49:47
  TRACK 71 AUDIO
    TITLE "0:"
    INDEX 01 01:52:10
  TRACK 72 AUDIO
    TITLE "9:cjc057_10239"
    INDEX 01 01:52:51
  TRACK 73 AUDIO
    TITLE "0:"
    INDEX 01 01:55:24
  TRACK 74 AUDIO
    TITLE "7:cjc057_10240"
    INDEX 01 01:56:30
  TRACK 75 AUDIO
    TITLE "0:"
    INDEX 01 01:57:53
  TRACK 76 AUDIO
    TITLE "8:cjc057_10241"
    INDEX 01 01:58:07
  TRACK 77 AUDIO
    TITLE "0:"
    INDEX 01 02:01:05
  TRACK 78 AUDIO
    TITLE "9:cjc057_10242"
    INDEX 01 02:01:45
  TRACK 79 AUDIO
    TITLE "0:"
    INDEX 01 02:05:29
  TRACK 80 AUDIO
    TITLE "7:cjc057_10243"
    INDEX 01 02:06:34
  TRACK 81 AUDIO
    TITLE "0:"
    INDEX 01 02:07:49
  TRACK 82 AUDIO
    TITLE "8:cjc057_10244"
    INDEX 01 02:08:03
  TRACK 83 AUDIO
    TITLE "0:"
    INDEX 01 02:11:51
  TRACK 84 AUDIO
    TITLE "9:cjc057_10245"
    INDEX 01 02:12:17
  TRACK 85 AUDIO
    TITLE "0:"
    INDEX 01 02:15:23
  TRACK 86 AUDIO
    TITLE "7:cjc057_10246"
    INDEX 01 02:16:30
  TRACK 87 AUDIO
    TITLE "0:"
    INDEX 01 02:17:47
  TRACK 88 AUDIO
    TITLE "8:cjc057_10247"
    INDEX 01 02:18:02
  TRACK 89 AUDIO
    TITLE "0:"
    INDEX 01 02:22:56
  TRACK 90 AUDIO
    TITLE "9:cjc057_10248"
    INDEX 01 02:23:23
  TRACK 91 AUDIO
    TITLE "0:"
    INDEX 01 02:26:21
  TRACK 92 AUDIO
    TITLE "7:cjc057_10249"
    INDEX 01 02:27:24
  TRACK 93 AUDIO
    TITLE "0:"
    INDEX 01 02:28:41
  TRACK 94 AUDIO
    TITLE "8:cjc057_10250"
    INDEX 01 02:28:69
  TRACK 95 AUDIO
    TITLE "0:"
    INDEX 01 02:32:31
  TRACK 96 AUDIO
    TITLE "9:cjc057_10251"
    INDEX 01 02:32:72
  TRACK 97 AUDIO
    TITLE "0:"
    INDEX 01 02:35:73
  TRACK 98 AUDIO
    TITLE "7:cjc057_10252"
    INDEX 01 02:37:01
  TRACK 99 AUDIO
    TITLE "0:"
    INDEX 01 02:38:05
  TRACK 100 AUDIO
    TITLE "8:cjc057_10253"
    INDEX 01 02:38:34
  TRACK 101 AUDIO
    TITLE "0:"
    INDEX 01 02:42:12
  TRACK 102 AUDIO
    TITLE "9:cjc057_10254"
    INDEX 01 02:42:53
  TRACK 103 AUDIO
    TITLE "0:"
    INDEX 01 02:45:61
  TRACK 104 AUDIO
    TITLE "7:cjc057_10255"
    INDEX 01 02:46:65
  TRACK 105 AUDIO
    TITLE "0:"
    INDEX 01 02:48:23
  TRACK 106 AUDIO
    TITLE "8:cjc057_10256"
    INDEX 01 02:48:52
  TRACK 107 AUDIO
    TITLE "0:"
    INDEX 01 02:51:13
  TRACK 108 AUDIO
    TITLE "9:cjc057_10257"
    INDEX 01 02:51:48
  TRACK 109 AUDIO
    TITLE "0:"
    INDEX 01 02:55:05
  TRACK 110 AUDIO
    TITLE "7:cjc057_10258"
    INDEX 01 02:56:08
  TRACK 111 AUDIO
    TITLE "0:"
    INDEX 01 02:57:14
  TRACK 112 AUDIO
    TITLE "8:cjc057_10259"
    INDEX 01 02:57:45
  TRACK 113 AUDIO
    TITLE "0:"
    INDEX 01 02:59:73
  TRACK 114 AUDIO
    TITLE "9:cjc057_10260"
    INDEX 01 03:00:39
  TRACK 115 AUDIO
    TITLE "0:"
    INDEX 01 03:03:44
  TRACK 116 AUDIO
    TITLE "7:cjc057_10261"
    INDEX 01 03:04:49
  TRACK 117 AUDIO
    TITLE "0:"
    INDEX 01 03:05:60
  TRACK 118 AUDIO
    TITLE "8:cjc057_10262"
    INDEX 01 03:06:15
  TRACK 119 AUDIO
    TITLE "0:"
    INDEX 01 03:09:13
  TRACK 120 AUDIO
    TITLE "9:cjc057_10263"
    INDEX 01 03:09:54
  TRACK 121 AUDIO
    TITLE "0:"
    INDEX 01 03:13:11
  TRACK 122 AUDIO
    TITLE "7:cjc057_10264"
    INDEX 01 03:14:14
  TRACK 123 AUDIO
    TITLE "0:"
    INDEX 01 03:15:41
  TRACK 124 AUDIO
    TITLE "8:cjc057_10265"
    INDEX 01 03:15:70
  TRACK 125 AUDIO
    TITLE "0:"
    INDEX 01 03:18:55
  TRACK 126 AUDIO
    TITLE "9:cjc057_10266"
    INDEX 01 03:19:23
  TRACK 127 AUDIO
    TITLE "0:"
    INDEX 01 03:22:35
